<svg width="368" height="298" viewBox="0 0 368 298" fill="none" xmlns="http://www.w3.org/2000/svg">
<path d="M185.903 18.877C113.629 17.802 53.0369 76.1727 51.9619 148.482C51.1019 193.631 73.0312 233.584 106.893 257.878C114.704 263.539 119.255 272.426 119.255 281.957V291.739C119.255 293.459 120.76 295 122.516 295H245.169C246.889 295 248.43 293.495 248.43 291.739V281.957C248.43 272.39 253.196 263.289 261.007 257.627C294.223 233.763 315.723 194.67 315.723 150.596C315.938 78.7884 257.997 19.9519 185.903 18.877Z" fill="#FF642D" stroke="white" stroke-width="2" stroke-miterlimit="10"/>
<path d="M209.409 93.8021C210.985 90.0756 210.699 90.6847 212.275 86.994C224.1 90.0039 236.999 88.069 247.463 81.7983C251.153 83.9124 250.723 82.1567 253.446 85.3816C239.508 93.2288 224.566 96.4895 209.409 93.8021Z" fill="white"/>
<mask id="mask0" mask-type="alpha" maskUnits="userSpaceOnUse" x="51" y="18" width="265" height="277">
<path d="M185.903 18.877C113.629 17.802 53.0369 76.1727 51.9619 148.482C51.1019 193.631 73.0312 233.584 106.893 257.878C114.704 263.539 119.255 272.426 119.255 281.957V291.739C119.255 293.459 120.76 295 122.516 295H245.169C246.889 295 248.43 293.495 248.43 291.739V281.957C248.43 272.39 253.196 263.289 261.007 257.627C294.223 233.763 315.723 194.67 315.723 150.596C315.938 78.7884 257.997 19.9519 185.903 18.877Z" fill="#FF642D"/>
</mask>
<g mask="url(#mask0)">
<path d="M239.687 79.9351C239.687 79.9351 240.511 79.8634 241.873 79.5051C247.355 78.0718 261.58 72.0878 267.063 48.3669C268.03 44.1029 269.786 37.8322 272.509 34.3565C275.232 30.8808 279.174 28.1575 283.545 27.9425C290.318 27.62 295.907 33.174 299.491 38.9072C309.13 54.2075 311.136 75.3844 304.651 92.2614C299.276 106.272 292.718 120.067 283.295 131.748C278.171 138.091 272.115 143.788 265.378 148.303C261.258 151.098 256.815 153.427 252.156 155.147C250.436 155.828 248.609 156.401 246.817 156.867C238.468 159.124 229.69 159.411 221.126 160.45C212.526 161.489 202.063 164.642 194.932 169.516C194.932 169.551 194.896 169.551 194.896 169.551" stroke="black" stroke-width="1.2" stroke-miterlimit="10" stroke-linecap="round" stroke-linejoin="round"/>
<path d="M299.276 39.0147C308.915 54.3151 310.921 75.4919 304.436 92.3689C299.061 106.379 292.504 120.175 283.08 131.856C277.956 138.198 271.9 143.896 265.164 148.41L264.984 148.16C269.535 138.234 270.252 126.768 267.887 116.126C265.558 105.483 260.29 95.5938 253.518 87.0299C251.798 84.8441 249.899 82.6583 247.498 81.225C245.743 80.1859 243.664 79.5409 241.658 79.6843C247.14 78.251 261.365 72.267 266.848 48.5461C267.815 44.282 269.571 38.0114 272.294 34.5357C274.982 31.06 278.959 28.3367 283.331 28.1217C290.067 27.7634 295.657 33.2816 299.276 39.0147Z" fill="black"/>
</g>
<path d="M135.917 184.852L137.995 200.833V200.869L138.031 200.905L140.181 217.567L152.472 206.208H152.507L163.866 195.709C165.12 194.813 166.052 193.631 166.554 192.233C166.554 192.233 187.372 206.136 192.03 201.084C193.535 199.471 192.353 196.067 190.06 192.233H190.095C190.095 192.233 206.793 195.53 208.728 189.797C209.302 188.077 208.047 186.249 205.754 184.458L206.22 183.884C206.22 183.884 219.406 180.444 219.155 175.249C218.976 171.343 204.357 171.737 194.718 169.695C201.848 164.822 212.311 161.668 220.911 160.629C229.511 159.59 238.254 159.303 246.603 157.046C248.394 156.544 250.222 155.971 251.942 155.326L252.014 155.541C263.086 162.027 275.054 168.871 286.842 174.711C290.426 176.503 291.572 181.054 289.279 184.314C268.102 214.628 242.231 241.574 212.885 264.077C162.541 250.496 115.421 225.271 76.2207 190.872C97.3975 184.135 117.428 173.887 135.523 160.844L136.096 160.593H136.132C137.028 162.779 138.139 164.857 139.429 166.828C139.823 167.437 140.253 168.082 140.755 168.62L136.204 181.77C135.881 182.774 135.774 183.813 135.917 184.852Z" fill="white"/>
<path d="M105.674 258.63C85.4651 246.161 66.3665 231.828 48.9879 215.882C47.4113 214.449 46.1213 212.729 45.3688 210.723C44.9389 210.149 44.6522 204.094 45.4047 202.875C46.408 202.266 46.8021 207.319 47.7696 206.638C83.6376 239.89 126.851 266.263 172.681 283.319C177.59 285.146 183.036 284.573 187.479 281.778C196.187 276.224 204.643 270.312 212.884 264.077C242.195 241.61 268.102 214.628 289.279 184.314C291.572 181.054 290.425 176.467 286.842 174.711C298.344 180.695 289.279 192.412 289.279 192.412C262.19 231.183 227.396 264.507 187.515 289.876C183.072 292.671 177.626 293.244 172.717 291.417C149.426 282.745 126.923 271.709 105.674 258.63Z" fill="black"/>
<path d="M204.069 47.9369C215.142 51.7351 222.129 60.514 219.728 67.5729C219.621 67.8954 219.477 68.2179 219.334 68.5404C216.288 74.8469 205.861 77.0685 195.291 73.4494C184.218 69.6512 177.195 60.8723 179.632 53.8134C182.033 46.7186 192.997 44.1028 204.069 47.9369ZM207.33 63.6672C208.19 61.159 205.718 58.0774 201.812 56.7516C197.906 55.4258 194.072 56.3216 193.212 58.8299C192.352 61.3023 194.825 64.3839 198.73 65.7455C202.6 67.0713 206.434 66.1396 207.33 63.6672Z" fill="white"/>
<path d="M207.689 95.7729C206.076 99.177 202.206 101.327 197.262 101.9C193.535 102.33 189.235 101.864 184.899 100.395C184.649 100.324 184.434 100.216 184.183 100.144C179.453 98.4245 175.583 95.7012 173.003 92.6913C170.137 89.3231 168.882 85.5607 169.922 82.1925C169.957 82.1208 169.993 82.0133 169.993 81.9417L179.345 54.315C176.909 61.374 183.932 70.1529 195.004 73.9511C205.539 77.5701 216.002 75.3485 219.048 69.0421L219.083 69.0779L211.308 87.2448L207.689 95.7729Z" fill="#FF642D"/>
<path d="M201.777 56.3575C205.933 57.7908 208.549 61.0873 207.653 63.7389C206.721 66.3905 202.636 67.358 198.48 65.9605C194.323 64.5272 191.708 61.2307 192.603 58.5791C193.535 55.9275 197.62 54.96 201.777 56.3575Z" fill="black"/>
<path d="M212.849 264.041C204.643 270.276 196.187 276.224 187.444 281.742C183 284.573 177.554 285.11 172.645 283.283C126.816 266.227 83.6019 239.89 47.7339 206.602C44.4015 203.52 46.0498 197.931 50.493 197.142C59.2002 195.637 67.7641 193.487 76.1846 190.8C115.385 225.235 162.504 250.461 212.849 264.041ZM182.176 275.436C187.48 274.862 191.779 271.852 191.779 268.699C191.779 265.546 187.48 263.432 182.176 264.005C176.873 264.578 172.537 267.553 172.537 270.742C172.537 273.931 176.837 276.009 182.176 275.436ZM162.289 267.015C167.593 266.442 171.892 263.288 171.857 259.92C171.821 256.552 167.485 254.259 162.182 254.796C156.879 255.334 152.579 258.523 152.615 261.855C152.651 265.259 156.986 267.553 162.289 267.015ZM142.438 257.914C147.562 257.412 151.683 254.366 151.611 251.141C151.576 247.916 147.419 245.695 142.295 246.232C137.207 246.734 133.086 249.78 133.122 253.005C133.158 256.23 137.314 258.451 142.438 257.914Z" fill="#FF642D"/>
<path d="M191.779 268.699C191.779 271.852 187.48 274.898 182.176 275.436C176.873 276.009 172.538 273.895 172.538 270.706C172.538 267.517 176.837 264.543 182.176 263.969C187.444 263.432 191.779 265.546 191.779 268.699Z" fill="black"/>
<path d="M139.32 191.266C141.47 193.452 144.444 195.386 148.028 196.641C152.148 198.074 156.269 198.289 159.601 197.501C161.214 197.106 162.647 196.497 163.794 195.673L152.435 206.172H152.399C149.819 207.498 146.666 207.713 143.979 206.709C141.255 205.706 139.07 203.556 137.959 200.869L137.923 200.833V200.797L135.845 184.816C136.203 187.038 137.386 189.259 139.32 191.266Z" fill="white"/>
<path d="M152.471 206.172L140.181 217.531L138.031 200.869C139.106 203.556 141.327 205.706 144.051 206.709C146.738 207.749 149.891 207.498 152.471 206.172Z" fill="black"/>
<path d="M120.401 130.172C121.118 130.315 121.548 131.032 121.297 131.713C117.284 142.785 114.31 154.215 112.447 165.861C112.375 166.434 111.873 166.864 111.3 166.864C94.1723 166.864 77.5461 161.955 62.7116 153.355C47.7696 144.648 35.6224 132.143 27.166 117.093C26.951 116.771 26.951 116.341 27.1302 115.982C38.6682 92.2255 53.9327 71.407 72.3505 52.5951C73.0671 51.8426 74.3571 52.3801 74.3571 53.4193C74.5004 70.0454 78.7644 86.5999 86.6833 101.219C90.3382 107.92 94.7456 114.298 100.443 119.351C105.818 124.188 113.235 128.739 120.401 130.172Z" fill="white"/>
<path d="M105.674 258.63C105.889 258.881 106.069 259.204 106.283 259.454C80.3051 252.825 55.9034 240.284 35.3357 223.121C31.7883 220.147 32.5408 214.557 36.8048 212.693C39.5281 211.475 42.2155 210.113 44.7596 208.537C44.8671 209.325 45.0821 210.042 45.3329 210.687C46.0854 212.693 47.3753 214.413 48.9519 215.847C66.3306 231.792 85.4291 246.161 105.674 258.63Z" fill="#FF642D"/>
<path d="M149.425 130.028C149.999 132.143 150.859 135.905 151.217 138.055C152.113 142.928 152.543 147.909 152.471 152.889C152.435 156.616 152.184 160.307 151.647 163.962C151.217 166.828 150.249 170.196 147.49 171.092C147.096 171.236 146.666 171.307 146.236 171.307C145.054 171.343 143.836 170.913 142.832 170.232C142.116 169.731 141.471 169.086 140.933 168.405C140.431 167.831 140.037 167.222 139.607 166.613C138.317 164.642 137.207 162.564 136.311 160.378H136.275C133.767 154.466 132.62 147.873 132.584 141.531C132.548 129.957 136.705 120.605 142.832 112.005C148.745 103.692 157.022 97.0629 166.41 93.0855" stroke="black" stroke-width="1.2" stroke-miterlimit="10" stroke-linecap="round" stroke-linejoin="round"/>
<path d="M170.173 82.0133L166.41 93.0496L151.217 138.055" stroke="black" stroke-width="1.2" stroke-miterlimit="10" stroke-linecap="round" stroke-linejoin="round"/>
<path d="M179.632 54.1359L170.244 81.7267" stroke="black" stroke-width="1.2" stroke-miterlimit="10" stroke-linecap="round" stroke-linejoin="round"/>
<path d="M140.933 168.405L136.454 181.591" stroke="black" stroke-width="1.2" stroke-miterlimit="10" stroke-linecap="round" stroke-linejoin="round"/>
<path d="M219.37 68.8987L211.595 87.0656L207.94 95.6295L197.548 119.96" stroke="black" stroke-width="1.2" stroke-miterlimit="10" stroke-linecap="round" stroke-linejoin="round"/>
<path d="M177.804 166.147L176.873 168.261L174.687 173.385L166.768 192.018" stroke="black" stroke-width="1.2" stroke-miterlimit="10" stroke-linecap="round" stroke-linejoin="round"/>
<path d="M179.632 54.1359C182.033 47.0769 192.997 44.497 204.07 48.2952C215.142 52.0934 222.129 60.8723 219.728 67.9313C219.621 68.2537 219.478 68.5762 219.334 68.8987C216.288 75.2052 205.861 77.4268 195.291 73.8077C184.183 69.9737 177.195 61.1948 179.632 54.1359Z" stroke="black" stroke-width="1.2" stroke-miterlimit="10" stroke-linecap="round" stroke-linejoin="round"/>
<path d="M206.721 63.4522C205.861 65.9246 201.991 66.8563 198.122 65.5305C194.216 64.1689 191.743 61.0873 192.603 58.6149C193.463 56.1066 197.333 55.2108 201.203 56.5366C205.109 57.8624 207.545 60.944 206.721 63.4522Z" stroke="black" stroke-width="1.2" stroke-miterlimit="10" stroke-linecap="round" stroke-linejoin="round"/>
<path d="M208.262 94.8054C208.19 95.0921 208.047 95.3788 207.939 95.6296C206.327 99.0336 202.457 101.184 197.512 101.757C193.785 102.187 189.486 101.721 185.15 100.252C184.899 100.18 184.684 100.073 184.433 100.001C179.703 98.2812 175.834 95.5579 173.254 92.548C170.387 89.1798 169.133 85.4174 170.172 82.0492C170.208 81.9775 170.244 81.87 170.244 81.7983" stroke="black" stroke-width="1.2" stroke-miterlimit="10" stroke-linecap="round" stroke-linejoin="round"/>
<path d="M166.768 192.018C166.267 193.416 165.335 194.598 164.081 195.494C162.934 196.318 161.501 196.927 159.888 197.321C156.556 198.11 152.471 197.895 148.315 196.461C144.731 195.207 141.722 193.308 139.607 191.087C137.673 189.08 136.454 186.858 136.203 184.673C136.06 183.633 136.168 182.594 136.49 181.591" stroke="black" stroke-width="1.2" stroke-miterlimit="10" stroke-linecap="round" stroke-linejoin="round"/>
<path d="M201.167 116.448C201.131 116.52 199.734 117.81 197.548 119.96C197.512 119.96 197.512 119.96 197.512 119.995C194.395 123.005 189.736 127.664 184.971 132.967C174.651 144.469 164.116 158.909 169.348 165.359C169.921 166.04 170.566 166.506 171.319 166.792C173.039 167.437 175.26 167.151 177.769 166.183C183.86 163.89 191.707 157.834 198.981 152.28C206.649 146.44 216.181 143.609 225.784 144.505C232.09 145.078 240.26 144.469 249.254 140.491" stroke="black" stroke-width="1.2" stroke-miterlimit="10" stroke-linecap="round" stroke-linejoin="round"/>
<path d="M211.559 87.0657C219.442 88.6064 227.755 89.0364 235.781 86.779C239.866 85.6324 243.915 83.7691 247.749 81.0458" stroke="black" stroke-width="1.2" stroke-miterlimit="10" stroke-linecap="round" stroke-linejoin="round"/>
<path d="M235.709 86.5282C235.1 83.8049 237.071 80.9384 239.687 79.9351C240.403 79.6842 241.12 79.5409 241.873 79.5051C243.915 79.3976 245.957 80.0067 247.713 81.0459C250.078 82.4791 251.977 84.6649 253.733 86.8507C260.505 95.4146 265.737 105.304 268.102 115.946C270.467 126.589 269.75 138.055 265.199 147.98" stroke="black" stroke-width="1.2" stroke-miterlimit="10" stroke-linecap="round" stroke-linejoin="round"/>
<path d="M152.722 205.993L164.08 195.494" stroke="black" stroke-width="1.2" stroke-miterlimit="10" stroke-linecap="round" stroke-linejoin="round"/>
<path d="M138.246 200.725L140.396 217.387L152.686 205.993" stroke="black" stroke-width="1.2" stroke-miterlimit="10" stroke-linecap="round" stroke-linejoin="round"/>
<path d="M136.132 184.35L136.168 184.708L138.246 200.654" stroke="black" stroke-width="1.2" stroke-miterlimit="10" stroke-linecap="round" stroke-linejoin="round"/>
<path d="M166.768 192.018C166.768 192.018 187.587 205.921 192.245 200.869C193.75 199.256 192.567 195.852 190.274 192.018C185.508 183.92 175.869 173.887 175.869 173.887" stroke="black" stroke-width="1.2" stroke-miterlimit="10" stroke-linecap="round" stroke-linejoin="round"/>
<path d="M190.274 192.018C190.274 192.018 206.972 195.315 208.907 189.582C209.48 187.862 208.226 186.034 205.933 184.243C198.695 178.474 180.922 172.597 178.127 168.835" stroke="black" stroke-width="1.2" stroke-miterlimit="10" stroke-linecap="round" stroke-linejoin="round"/>
<path d="M206.434 183.669C206.434 183.669 219.621 180.229 219.37 175.034C219.191 171.128 204.571 171.522 194.932 169.48C191.707 168.799 189.02 167.903 187.623 166.47" stroke="black" stroke-width="1.2" stroke-miterlimit="10" stroke-linecap="round" stroke-linejoin="round"/>
<path d="M252.228 155.326C263.3 161.812 275.268 168.656 287.057 174.496C290.64 176.288 291.787 180.839 289.493 184.099C268.317 214.413 242.446 241.359 213.099 263.862C204.894 270.097 196.437 276.045 187.694 281.563C183.251 284.394 177.804 284.931 172.895 283.104C127.066 266.048 83.8524 239.711 47.9844 206.459C44.652 203.377 46.3002 197.787 50.7434 196.999C59.4507 195.494 68.0146 193.344 76.4351 190.657C97.612 183.92 117.642 173.672 135.737 160.629" stroke="black" stroke-width="1.2" stroke-miterlimit="10" stroke-linecap="round" stroke-linejoin="round"/>
<path d="M287.057 174.496C298.559 180.48 289.494 192.197 289.494 192.197C262.405 230.968 227.612 264.292 187.73 289.661C183.287 292.456 177.841 293.029 172.932 291.202C149.712 282.566 127.174 271.53 105.925 258.415C85.716 245.946 66.6174 231.613 49.2388 215.667C47.6622 214.234 46.3722 212.514 45.6197 210.508C45.3689 209.827 45.1539 209.146 45.0464 208.358C44.6164 206.208 44.7956 203.628 46.2647 200.905" stroke="black" stroke-width="1.2" stroke-miterlimit="10" stroke-linecap="round" stroke-linejoin="round"/>
<path d="M110.333 216.814C141.686 237.991 176.55 254.008 213.063 263.862" stroke="black" stroke-width="1.2" stroke-miterlimit="10" stroke-linecap="round" stroke-linejoin="round"/>
<path d="M76.4355 190.657C83.9961 197.286 91.8076 203.556 99.9056 209.468" stroke="black" stroke-width="1.2" stroke-miterlimit="10" stroke-linecap="round" stroke-linejoin="round"/>
<path d="M112.697 165.717C114.561 154.072 117.499 142.606 121.548 131.569C121.799 130.888 121.369 130.208 120.652 130.028C113.522 128.595 106.068 124.009 100.729 119.243C95.0321 114.155 90.5889 107.812 86.9698 101.112C79.0509 86.5282 74.7869 69.9379 74.6436 53.3117C74.6436 52.2726 73.3894 51.7351 72.637 52.4876C54.1475 71.2995 38.883 92.0822 27.345 115.839C27.1659 116.197 27.1659 116.627 27.3809 116.95C35.8731 131.999 48.0202 144.505 62.9264 153.212C77.761 161.812 94.3871 166.721 111.515 166.721C112.124 166.721 112.59 166.291 112.697 165.717Z" stroke="black" stroke-width="1.2" stroke-miterlimit="10" stroke-linecap="round" stroke-linejoin="round"/>
<path d="M138.246 200.654L138.281 200.69C139.356 203.377 141.578 205.527 144.301 206.53C147.024 207.569 150.142 207.319 152.722 205.993H152.758" stroke="black" stroke-width="1.2" stroke-miterlimit="10" stroke-linecap="round" stroke-linejoin="round"/>
<path d="M191.994 268.52C191.994 271.673 187.694 274.719 182.391 275.256C177.088 275.83 172.752 273.716 172.752 270.527C172.752 267.338 177.052 264.363 182.391 263.79C187.694 263.289 191.994 265.367 191.994 268.52Z" stroke="black" stroke-width="1.2" stroke-miterlimit="10" stroke-linecap="round" stroke-linejoin="round"/>
<path d="M172.107 259.741C172.143 263.109 167.843 266.298 162.54 266.836C157.236 267.373 152.901 265.08 152.865 261.712C152.829 258.344 157.129 255.155 162.432 254.653C167.735 254.08 172.071 256.373 172.107 259.741Z" stroke="black" stroke-width="1.2" stroke-miterlimit="10" stroke-linecap="round" stroke-linejoin="round"/>
<path d="M151.862 250.962C151.898 254.187 147.777 257.233 142.689 257.734C137.601 258.272 133.444 256.05 133.408 252.825C133.373 249.601 137.493 246.555 142.581 246.053C147.67 245.516 151.826 247.737 151.862 250.962Z" stroke="white" stroke-width="1.2" stroke-miterlimit="10" stroke-linecap="round" stroke-linejoin="round"/>
<path d="M105.71 258.2C105.782 258.272 105.854 258.344 105.925 258.451C106.14 258.702 106.319 259.024 106.534 259.275C80.5561 252.646 56.1544 240.105 35.5867 222.941C32.0393 219.967 32.7918 214.378 37.0558 212.514C39.7791 211.296 42.4665 209.934 45.0106 208.358C46.0139 207.749 46.9813 207.104 47.9846 206.459" stroke="black" stroke-width="1.2" stroke-miterlimit="10" stroke-linecap="round" stroke-linejoin="round"/>
<path d="M184.434 99.9652L148.279 196.461" stroke="black" stroke-width="1.2" stroke-miterlimit="10" stroke-linecap="round" stroke-linejoin="round"/>
<path d="M139.571 191.087L146.236 171.307" stroke="black" stroke-width="1.2" stroke-miterlimit="10" stroke-linecap="round" stroke-linejoin="round"/>
<path d="M172.896 92.2613L152.471 152.889" stroke="black" stroke-width="1.2" stroke-miterlimit="10" stroke-linecap="round" stroke-linejoin="round"/>
<path d="M171.355 166.792L159.673 195.673L158.921 197.536" stroke="black" stroke-width="1.2" stroke-miterlimit="10" stroke-linecap="round" stroke-linejoin="round"/>
<path d="M197.512 101.9L184.971 132.967" stroke="black" stroke-width="1.2" stroke-miterlimit="10" stroke-linecap="round" stroke-linejoin="round"/>
<path d="M47.6623 135.547C49.8481 127.628 50.2064 119.207 48.7373 111.109C48.594 110.285 48.4148 109.461 47.9848 108.78C47.5548 108.063 46.7665 107.526 45.9424 107.562C44.3658 107.633 43.685 109.604 43.6133 111.181C43.47 115.122 44.8316 119.136 47.3757 122.181C48.7373 123.794 50.7081 125.263 52.7505 124.833C55.0438 124.367 56.2621 121.966 57.0862 119.78C60.5261 110.572 62.1386 100.646 61.3502 90.8281C61.2427 89.6456 61.0994 88.4273 60.4903 87.3882C59.8811 86.3849 58.6628 85.5966 57.5162 85.8832C56.5846 86.0982 55.9037 86.9224 55.5813 87.854C55.2946 88.7498 55.3304 89.7531 55.4021 90.7206C55.7963 95.1279 57.1579 99.4278 59.3795 103.262C60.0245 104.373 60.7411 105.483 61.7802 106.272C62.7835 107.06 64.1452 107.526 65.3993 107.203C67.4776 106.666 68.445 104.373 69.1258 102.33C70.595 97.7437 71.8132 93.0855 72.7807 88.3556" stroke="black" stroke-width="1.2" stroke-miterlimit="10" stroke-linecap="round" stroke-linejoin="round"/>
<path d="M68.0865 146.547C69.7706 141.28 70.2723 135.618 69.5198 130.136C69.3765 129.133 69.1973 128.094 68.624 127.269C68.0507 126.445 67.0115 125.836 66.0082 126.087C65.1483 126.302 64.5391 127.126 64.3241 127.986C64.1091 128.846 64.2525 129.778 64.4675 130.638C65.0408 132.931 66.0799 135.117 67.549 136.944C68.4807 138.127 69.7706 139.273 71.2756 139.237C73.3538 139.166 74.6438 136.98 75.3604 135.009C77.6537 128.595 78.012 121.536 76.3637 114.907C76.1846 114.191 75.9696 113.438 75.5038 112.829C75.038 112.22 74.2855 111.826 73.533 112.005C72.2072 112.292 71.9206 114.011 72.0281 115.373C72.243 117.953 73.0314 120.461 74.3213 122.683C75.4321 124.618 77.3671 126.553 79.5528 126.087C81.6311 125.657 82.706 123.364 83.2794 121.285C84.4977 116.914 84.9635 112.292 84.6768 107.777" stroke="black" stroke-width="1.2" stroke-miterlimit="10" stroke-linecap="round" stroke-linejoin="round"/>
<path d="M140.396 217.387C140.396 217.387 148.566 216.241 170.388 216.778C182.642 217.065 188.232 219.86 190.776 222.225C192.819 224.124 193.213 227.349 191.6 229.642C188.053 234.623 178.091 237.812 173.218 236.916C171.068 236.522 170.388 233.906 172.072 232.437C181.245 224.411 208.621 228.675 213.1 235.447C217.865 242.685 192.926 253.327 190.346 246.841C187.766 240.32 204.392 240.32 212.634 240.75C220.875 241.144 227.289 242.685 227.289 242.685" stroke="black" stroke-width="1.2" stroke-miterlimit="10" stroke-linecap="round" stroke-linejoin="round"/>
<path d="M108.254 74.2019C103.847 74.2019 100.586 71.1203 100.12 68.0746C106.212 68.0746 114.059 64.4197 115.958 57.3966C117.57 57.8624 119.183 59.2957 120.795 59.7257C120.974 61.1232 121.333 62.9506 121.512 64.3481" fill="#FF642D"/>
<path d="M108.254 74.2019C103.847 74.2019 100.586 71.1203 100.12 68.0746C106.212 68.0746 114.059 64.4197 115.958 57.3966C117.57 57.8624 119.183 59.2957 120.795 59.7257C120.974 61.1232 121.333 62.9506 121.512 64.3481" stroke="black" stroke-width="1.2" stroke-miterlimit="10" stroke-linecap="round" stroke-linejoin="round"/>
<path d="M111.5 2.5C124.005 14.5755 137.027 43.5295 125.919 62.019C123.16 66.6055 118.921 72.9609 110.5 74C110.787 73.9642 111.249 73.6075 111.5 73.5C112.396 73.2133 112.052 72.4103 112.805 71.837C114.99 70.117 116.424 67.2863 116.782 64.4555C117.033 62.5564 116.854 60.6573 116.495 58.7941C116.101 56.9308 115.492 55.1033 114.74 53.3476C108.576 39.0147 95.4443 27.2939 80.5 21.5C84.4057 17.3435 104.62 4.54244 111.5 2.5Z" fill="white"/>
<path d="M108.254 74.2019C108.684 74.1661 109.114 74.1303 109.508 74.0586C117.929 73.0195 123.16 67.2863 125.919 62.6998C137.027 44.2104 123.626 14.7563 111.121 2.68082C104.241 4.72325 84.4614 17.7303 80.5557 21.8869C95.8202 27.0109 108.576 39.6955 114.74 54.0284C115.492 55.7483 116.101 57.5758 116.495 59.4749C116.89 61.3382 117.033 63.2731 116.782 65.1364C116.424 67.9671 115.026 70.7979 112.805 72.5178C112.088 73.0911 111.264 73.5569 110.332 73.8436C110.081 73.9153 109.795 73.9869 109.508 74.0586C109.114 74.1661 108.684 74.2019 108.254 74.2019Z" stroke="black" stroke-width="1.2" stroke-miterlimit="10" stroke-linecap="round" stroke-linejoin="round"/>
<path d="M315.723 150.632C315.938 78.7884 257.961 19.952 185.903 18.8412" stroke="white" stroke-width="2" stroke-miterlimit="10"/>
</svg>
